<svg width="281" height="56" viewBox="0 0 281 56" fill="none" xmlns="http://www.w3.org/2000/svg">
<path d="M2 20.1239V44.277C2 50.614 7.13716 55.7511 13.4742 55.7511H45.0281C51.3651 55.7511 56.5023 50.614 56.5023 44.277L56.5023 12.723C56.5023 6.38602 51.3651 1.24886 45.0281 1.24886H19.0064C18.2142 1.24886 17.5721 1.891 17.5721 2.68313V15.821C17.5721 17.4053 16.2878 18.6896 14.7035 18.6896H3.43427C2.64214 18.6896 2 19.3317 2 20.1239Z" fill="#4988FC"/>
<rect x="32" y="9.24886" width="16" height="5" rx="2.5" fill="white"/>
<rect x="24" y="19.2489" width="24" height="5" rx="2.5" fill="white"/>
<path d="M14.1607 17.2615H3.26044C2.01247 17.2615 1.35987 15.778 2.20315 14.8581L13.1034 2.96691C13.9873 2.00266 15.5949 2.62801 15.5949 3.93608V15.8272C15.5949 16.6194 14.9528 17.2615 14.1607 17.2615Z" fill="#4988FC"/>
<path d="M53.9899 32.6252C53.7123 36.9624 49.2792 40.3519 42.7615 41.4109C42.3334 41.4804 41.9493 41.143 41.9493 40.7087C41.9494 40.3296 41.9496 39.932 41.9498 39.5422C41.95 38.9783 41.3307 38.6313 40.8446 38.9135C39.0357 39.9636 35.7632 41.637 31.3949 42.6072C30.8718 42.7234 30.6392 43.3468 30.9823 43.7617C33.7879 47.1548 36.6447 49.3554 40.9414 51.4421C41.4114 51.6703 41.9498 51.3268 41.95 50.8055C41.9501 50.2909 41.9504 49.7553 41.9505 49.2605C41.9505 48.9018 42.2156 48.6001 42.5706 48.5515C49.2 47.6438 53.7167 46.2722 53.9899 41.8999L53.9899 32.6252Z" fill="white"/>
<path d="M53.9872 33.8356C53.9961 33.521 53.9827 33.2036 53.9446 32.8835C53.6736 30.5577 51.6365 28.4666 49.2825 26.9045C48.8221 26.5989 48.2251 26.9406 48.2251 27.4932V33.4223C48.2251 33.6781 48.3619 33.9137 48.5806 34.0464C51.2013 35.6367 53.4277 37.8141 53.7254 40.3681C53.7634 40.6882 53.7768 41.0056 53.7679 41.3202L53.9872 33.8356Z" fill="white"/>
<path d="M4.31103 26.2649C4.55201 29.7284 8.00935 32.253 13.6133 33.1028C14.0382 33.1672 14.4154 32.8331 14.4153 32.4033C14.4153 32.2086 14.4152 32.0095 14.4151 31.811C14.4148 31.2602 15.0085 30.9147 15.4953 31.172C17.0629 32.0003 19.7907 33.2627 23.3982 34.0289C23.9411 34.1442 24.1781 34.799 23.803 35.2086C21.4373 37.7914 19.0014 39.5032 15.4069 41.1218C14.9389 41.3325 14.4149 40.9863 14.4147 40.4732C14.4146 40.165 14.4144 39.8516 14.4144 39.5531C14.4143 39.1902 14.1426 38.8857 13.7835 38.8335C8.07286 38.0041 4.54755 35.4637 4.3103 31.9708L4.31103 26.2649Z" fill="white"/>
<path d="M7.12084 22.7838C7.12217 22.3628 6.64365 22.128 6.32847 22.4075C4.98651 23.5973 4.40502 24.7374 4.31127 26.2626L4.31054 31.9686C4.41302 30.4758 4.8818 29.2251 6.83337 27.6891C7.01132 27.549 7.11987 27.3365 7.11991 27.1101C7.1202 25.7556 7.12057 24.073 7.12084 22.7838V22.7838Z" fill="white"/>
<path d="M258.057 40.6542C257.504 40.6542 257.057 40.2065 257.057 39.6542V22.742C257.057 22.1897 257.504 21.742 258.057 21.742H263.431C263.983 21.742 264.431 22.1897 264.431 22.742V25.7364C264.431 26.2798 263.738 26.5081 263.415 26.0711V26.0711C263.3 25.9159 263.271 25.7121 263.348 25.535C263.924 24.2024 264.8 23.1916 265.975 22.5027C266.988 21.9085 268.164 21.5537 269.503 21.4381C270.054 21.3907 270.502 21.844 270.502 22.3963V27.3792C270.502 27.8725 270.068 28.2487 269.576 28.2074V28.2074C269.325 28.1844 269.062 28.1729 268.787 28.1729C267.621 28.1729 266.661 28.484 265.906 29.1064C265.174 29.7057 264.808 30.7544 264.808 32.2527V39.6542C264.808 40.2065 264.361 40.6542 263.808 40.6542H258.057Z" fill="#4988FC"/>
<path d="M245.006 41C242.719 41 240.719 40.5736 239.004 39.7207C237.311 38.8679 235.997 37.7039 235.059 36.2287C234.122 34.7305 233.653 33.0479 233.653 31.1808C233.653 29.2677 234.11 27.5736 235.025 26.0984C235.962 24.6232 237.231 23.4707 238.832 22.641C240.456 21.8112 242.274 21.3963 244.286 21.3963C246.138 21.3963 247.842 21.7651 249.397 22.5027C250.974 23.2402 252.232 24.3351 253.17 25.7872C254.13 27.2394 254.61 29.0372 254.61 31.1808C254.61 31.4574 254.599 31.7686 254.576 32.1144V32.1144C254.54 32.6226 254.115 33.0133 253.606 33.0133H241.067C240.515 33.0133 240.067 32.5656 240.067 32.0133V30.2447C240.067 29.6924 240.515 29.2447 241.067 29.2447H247.893C248.365 29.2447 248.475 29.9037 248.029 30.057V30.057C247.758 30.1503 247.476 29.9482 247.444 29.6633C247.39 29.1752 247.263 28.7475 247.064 28.3803C246.813 27.8502 246.458 27.4468 246.001 27.1702C245.544 26.8706 244.995 26.7207 244.354 26.7207C243.714 26.7207 243.154 26.8706 242.674 27.1702C242.216 27.4468 241.862 27.8502 241.61 28.3803C241.359 28.8874 241.233 29.5097 241.233 30.2473V31.4229C241.233 32.2296 241.393 32.9211 241.713 33.4973C242.033 34.0736 242.491 34.5115 243.085 34.8112C243.68 35.0878 244.4 35.2261 245.246 35.2261C246.115 35.2261 246.824 35.1108 247.373 34.8803C247.719 34.7408 248.073 34.5591 248.436 34.3351C248.862 34.0725 249.418 34.1087 249.768 34.4652L252.536 37.2782C252.91 37.6585 252.923 38.2708 252.52 38.6204C251.743 39.2946 250.839 39.8343 249.808 40.2394C248.482 40.7464 246.881 41 245.006 41Z" fill="#4988FC"/>
<path d="M218.695 41C217.072 41 215.562 40.6082 214.168 39.8245C212.796 39.0177 211.698 37.8883 210.875 36.4362C210.052 34.961 209.64 33.2092 209.64 31.1808C209.64 29.1525 210.052 27.4122 210.875 25.9601C211.698 24.4849 212.796 23.3555 214.168 22.5718C215.562 21.7881 217.072 21.3963 218.695 21.3963C220.342 21.3963 221.691 21.7535 222.743 22.4681C223.795 23.1596 224.572 24.2314 225.075 25.6835C225.578 27.1126 225.83 28.945 225.83 31.1808C225.83 33.4397 225.59 35.2952 225.109 36.7473C224.652 38.1995 223.897 39.2713 222.846 39.9628C221.817 40.6543 220.433 41 218.695 41ZM220.547 34.9149C221.119 34.9149 221.634 34.7766 222.091 34.5C222.548 34.2234 222.914 33.8085 223.189 33.2553C223.463 32.6791 223.6 31.9876 223.6 31.1808C223.6 30.3511 223.463 29.6711 223.189 29.141C222.914 28.5878 222.548 28.1729 222.091 27.8963C221.634 27.6197 221.119 27.4814 220.547 27.4814C219.976 27.4814 219.461 27.6197 219.004 27.8963C218.547 28.1729 218.181 28.5878 217.906 29.141C217.632 29.6711 217.495 30.3511 217.495 31.1808C217.495 31.9876 217.632 32.6791 217.906 33.2553C218.181 33.8085 218.547 34.2234 219.004 34.5C219.461 34.7766 219.976 34.9149 220.547 34.9149ZM224.84 40.6543C224.288 40.6543 223.84 40.2065 223.84 39.6543V38.0957L223.806 31.1808L223.463 24.266V16C223.463 15.4477 223.911 15 224.463 15H230.215C230.767 15 231.215 15.4477 231.215 16V39.6543C231.215 40.2065 230.767 40.6543 230.215 40.6543H224.84Z" fill="#4988FC"/>
<path d="M200.575 40.6542C200.023 40.6542 199.575 40.2065 199.575 39.6542V37.5817C199.575 37.3978 199.524 37.2175 199.428 37.0606L199.173 36.6415C199.077 36.4846 199.026 36.3043 199.026 36.1205V30.0399C199.026 29.1179 198.74 28.4149 198.169 27.9308C197.62 27.4468 196.717 27.2048 195.459 27.2048C194.613 27.2048 193.755 27.3431 192.886 27.6197C192.46 27.7441 192.064 27.8934 191.698 28.0677C191.13 28.3387 190.403 28.1629 190.131 27.595L188.572 24.3433C188.353 23.8854 188.51 23.3314 188.961 23.0979C189.887 22.6182 190.944 22.2353 192.132 21.9495C193.664 21.5807 195.162 21.3963 196.625 21.3963C199.849 21.3963 202.342 22.1223 204.103 23.5745C205.886 25.0266 206.778 27.3316 206.778 30.4894V39.6542C206.778 40.2065 206.33 40.6542 205.778 40.6542H200.575ZM194.258 41C192.726 41 191.446 40.7349 190.417 40.2048C189.388 39.6746 188.61 38.9716 188.084 38.0957C187.558 37.1968 187.295 36.2057 187.295 35.1223C187.295 33.9007 187.604 32.8635 188.222 32.0106C188.839 31.1578 189.777 30.5124 191.034 30.0745C192.315 29.6365 193.927 29.4175 195.871 29.4175H198.781C199.333 29.4175 199.781 29.8653 199.781 30.4175V32.1862C199.781 32.7384 199.333 33.1862 198.781 33.1862H197.105C196.282 33.1862 195.676 33.3245 195.287 33.6011C194.922 33.8546 194.739 34.2464 194.739 34.7766C194.739 35.2145 194.899 35.5833 195.219 35.883C195.562 36.1596 196.019 36.2979 196.591 36.2979C197.117 36.2979 197.597 36.1596 198.031 35.883V35.883C198.539 35.5507 199.472 35.539 199.712 36.0961L199.914 36.5679C199.984 36.7296 200.003 36.9093 199.96 37.0802C199.642 38.3543 199.034 39.3152 198.134 39.9628C197.174 40.6542 195.882 41 194.258 41Z" fill="#4988FC"/>
<path d="M176.674 41C174.387 41 172.386 40.5736 170.671 39.7207C168.979 38.8679 167.664 37.7039 166.727 36.2287C165.789 34.7305 165.32 33.0479 165.32 31.1808C165.32 29.2677 165.778 27.5736 166.692 26.0984C167.63 24.6232 168.899 23.4707 170.5 22.641C172.123 21.8112 173.941 21.3963 175.953 21.3963C177.806 21.3963 179.509 21.7651 181.064 22.5027C182.642 23.2402 183.9 24.3351 184.837 25.7872C185.798 27.2394 186.278 29.0372 186.278 31.1808C186.278 31.4574 186.266 31.7686 186.243 32.1144V32.1144C186.207 32.6226 185.783 33.0133 185.273 33.0133H172.734C172.182 33.0133 171.734 32.5656 171.734 32.0133V30.2447C171.734 29.6924 172.182 29.2447 172.734 29.2447H179.561C180.032 29.2447 180.142 29.9037 179.697 30.057V30.057C179.426 30.1503 179.144 29.9482 179.112 29.6633C179.057 29.1752 178.93 28.7475 178.732 28.3803C178.48 27.8502 178.126 27.4468 177.668 27.1702C177.211 26.8706 176.662 26.7207 176.022 26.7207C175.382 26.7207 174.821 26.8706 174.341 27.1702C173.884 27.4468 173.529 27.8502 173.278 28.3803C173.026 28.8874 172.901 29.5097 172.901 30.2473V31.4229C172.901 32.2296 173.061 32.9211 173.381 33.4973C173.701 34.0736 174.158 34.5115 174.753 34.8112C175.347 35.0878 176.068 35.2261 176.914 35.2261C177.783 35.2261 178.492 35.1108 179.04 34.8803C179.386 34.7408 179.741 34.5591 180.104 34.3351C180.529 34.0725 181.085 34.1087 181.436 34.4652L184.203 37.2782C184.577 37.6585 184.591 38.2708 184.188 38.6204C183.411 39.2946 182.507 39.8343 181.476 40.2394C180.149 40.7464 178.549 41 176.674 41Z" fill="#4988FC"/>
<path d="M146.385 40.6543C145.833 40.6543 145.385 40.2065 145.385 39.6543V17.4521C145.385 16.8998 145.833 16.4521 146.385 16.4521H152.48C153.033 16.4521 153.48 16.8998 153.48 17.4521V32.3227C153.48 32.875 153.928 33.3227 154.48 33.3227H163.319C163.871 33.3227 164.319 33.7704 164.319 34.3227V39.6543C164.319 40.2065 163.871 40.6543 163.319 40.6543H146.385Z" fill="#4988FC"/>
<path d="M129.542 27.7553C129.542 27.203 129.99 26.7553 130.542 26.7553H139.106C139.659 26.7553 140.106 27.203 140.106 27.7553V31.9096C140.106 32.4619 139.659 32.9096 139.106 32.9096H130.542C129.99 32.9096 129.542 32.4619 129.542 31.9096V27.7553ZM130.091 39.6543C130.091 40.2065 129.643 40.6543 129.091 40.6543H122.996C122.444 40.6543 121.996 40.2065 121.996 39.6543V17.4521C121.996 16.8998 122.444 16.4521 122.996 16.4521H140.513C141.065 16.4521 141.513 16.8998 141.513 17.4521V21.6064C141.513 22.1587 141.065 22.6064 140.513 22.6064H131.091C130.538 22.6064 130.091 23.0541 130.091 23.6064V39.6543Z" fill="#393939"/>
<path d="M94.658 40.6543C94.1057 40.6543 93.658 40.2065 93.658 39.6543V17.4521C93.658 16.8998 94.1057 16.4521 94.658 16.4521H105.492C108.167 16.4521 110.522 16.9477 112.557 17.9388C114.593 18.9069 116.182 20.2899 117.325 22.0878C118.469 23.8856 119.04 26.0293 119.04 28.5186C119.04 31.031 118.469 33.1977 117.325 35.0186C116.182 36.8165 114.593 38.211 112.557 39.2021C110.522 40.1702 108.167 40.6543 105.492 40.6543H94.658ZM101.753 33.2926C101.753 33.8448 102.201 34.2926 102.753 34.2926H105.149C106.292 34.2926 107.287 34.0736 108.133 33.6356C109.002 33.1977 109.676 32.5523 110.156 31.6995C110.637 30.8236 110.877 29.7633 110.877 28.5186C110.877 27.297 110.637 26.2598 110.156 25.4069C109.676 24.5541 109.002 23.9087 108.133 23.4708C107.287 23.0328 106.292 22.8138 105.149 22.8138H102.753C102.201 22.8138 101.753 23.2615 101.753 23.8138V33.2926Z" fill="#393939"/>
<path d="M69.5023 40.6543C68.95 40.6543 68.5023 40.2065 68.5023 39.6543V17.4521C68.5023 16.8998 68.95 16.4521 69.5023 16.4521H80.0614C82.3024 16.4521 84.2346 16.8209 85.8582 17.5585C87.5046 18.2961 88.7737 19.3564 89.6655 20.7394C90.5573 22.0993 91.0032 23.7128 91.0032 25.5798C91.0032 27.4468 90.5573 29.0603 89.6655 30.4202C88.7737 31.7801 87.5046 32.8404 85.8582 33.6011C84.2346 34.3387 82.3024 34.7075 80.0614 34.7075H75.4635C74.5651 34.7075 74.1224 33.6149 74.7674 32.9895L74.901 32.86C75.5353 32.245 76.5971 32.6944 76.5971 33.5779V39.6543C76.5971 40.2065 76.1494 40.6543 75.5971 40.6543H69.5023ZM76.5971 29.6536C76.5971 30.551 75.5066 30.9942 74.8806 30.3512L74.6482 30.1125C74.0313 29.4787 74.4803 28.4149 75.3647 28.4149H79.5469C80.6674 28.4149 81.4906 28.1614 82.0166 27.6543C82.5654 27.1472 82.8398 26.4557 82.8398 25.5798C82.8398 24.7039 82.5654 24.0124 82.0166 23.5053C81.4906 22.9982 80.6674 22.7447 79.5469 22.7447H75.3647C74.4803 22.7447 74.0313 21.6809 74.6482 21.0471L74.8806 20.8084C75.5066 20.1654 76.5971 20.6086 76.5971 21.506V29.6536Z" fill="#393939"/>
</svg>
